<svg id="Layer_1" data-name="Layer 1" xmlns="http://www.w3.org/2000/svg" viewBox="0 0 68.76 55.91"><defs><style>.cls-1{fill:#4e62f4;fill-rule:evenodd;}</style></defs><path class="cls-1" d="M1180.92,521.57c3.46,7,9.76,11,15.78,10,4-.67,8.75-3.63,12.48-11.23a6,6,0,0,0-10.78-5.28,15.92,15.92,0,0,1-2.25,3.55c-.5.57-.91,1-1.42,1.12s-.92-.5-1.37-1a10.68,10.68,0,0,1-2-3.33,58.56,58.56,0,0,1-1.93-6.22,151.86,151.86,0,0,0,10.87-25.57,6,6,0,1,0-11.49-3.48s-1.66,5.49-4.62,12.46c-.61-1.45-1.26-2.85-2-4.18-4.44-8.25-11-13.55-19.89-12.5-14.36,1.69-21.57,15.16-21.26,28.68.32,13.82,8.56,26.49,22,26.49,6.45,0,12.64-3.69,17.92-9.58Zm-4.33-14.21a67.13,67.13,0,0,0-5-13.19c-1.91-3.55-4.09-6.73-7.92-6.27-7.9.92-10.83,9.05-10.66,16.48a20.06,20.06,0,0,0,3.18,10.94,8.13,8.13,0,0,0,6.78,3.83c2.32,0,4.42-1.29,6.43-3a39.81,39.81,0,0,0,7.16-8.75Z" transform="translate(-1141.03 -475.85)"/></svg>