<svg id="Layer_1" data-name="Layer 1" xmlns="http://www.w3.org/2000/svg" viewBox="0 0 165.75 55.92"><defs><style>.cls-1{fill:#4e62f4;}.cls-1,.cls-3{fill-rule:evenodd;}.cls-2{fill:#2c40c1;}.cls-3{fill:#c787ff;}</style></defs><path class="cls-1" d="M755.94,521.57c3.46,7,9.76,11,15.78,10,4-.67,8.75-3.63,12.48-11.23a6,6,0,1,0-10.78-5.28,15.92,15.92,0,0,1-2.25,3.55c-.5.57-.91,1-1.42,1.12s-.92-.5-1.37-1a10.68,10.68,0,0,1-2-3.33,58.56,58.56,0,0,1-1.93-6.22,151.86,151.86,0,0,0,10.87-25.57,6,6,0,1,0-11.48-3.48s-1.66,5.49-4.63,12.46c-.6-1.45-1.26-2.85-2-4.18-4.44-8.25-11-13.55-19.89-12.5-14.36,1.69-21.57,15.16-21.26,28.68.32,13.82,8.56,26.49,22,26.49,6.45,0,12.64-3.69,17.92-9.58Zm-4.32-14.21a67.16,67.16,0,0,0-5-13.19c-1.91-3.55-4.09-6.73-7.92-6.27-7.9.92-10.83,9.05-10.66,16.48a20.14,20.14,0,0,0,3.18,10.94,8.13,8.13,0,0,0,6.78,3.83c2.32,0,4.42-1.29,6.44-3a40.09,40.09,0,0,0,7.16-8.75Z" transform="translate(-716.05 -475.85)"/><path class="cls-2" d="M794.78,499l6.09-23.14h7.6L814.56,499h-4.5l-1.26-5.09h-8.26L799.28,499Zm6.78-9.12h6.22L805,478.59h-.6l-2.81,11.28Z" transform="translate(-716.05 -475.85)"/><polygon class="cls-2" points="99.89 23.15 99.89 0 104.06 0 104.06 23.15 99.89 23.15 99.89 23.15"/><path class="cls-2" d="M822.43,505.61v-23h4.1v2h.59a5.22,5.22,0,0,1,1.75-1.71,6.54,6.54,0,0,1,3.41-.74,7.07,7.07,0,0,1,6.38,3.83,9.49,9.49,0,0,1,1,4.57v.53a9.48,9.48,0,0,1-1,4.56,7.11,7.11,0,0,1-6.38,3.84,7.84,7.84,0,0,1-2.5-.35,4.79,4.79,0,0,1-1.62-.89,5.66,5.66,0,0,1-1-1.11h-.6v8.5Zm8.59-9.79a4.48,4.48,0,0,0,3.23-1.24,4.82,4.82,0,0,0,1.27-3.62v-.33a4.78,4.78,0,0,0-1.29-3.62,4.76,4.76,0,0,0-6.41,0,4.78,4.78,0,0,0-1.29,3.62V491a4.79,4.79,0,0,0,1.29,3.62,4.45,4.45,0,0,0,3.2,1.24Z" transform="translate(-716.05 -475.85)"/><path class="cls-2" d="M841.77,499V475.85h4.17v8.76h.59a3.85,3.85,0,0,1,.83-1.06,4.57,4.57,0,0,1,1.5-.88,7.1,7.1,0,0,1,2.4-.34,6.37,6.37,0,0,1,3.36.87,6,6,0,0,1,2.23,2.42,7.68,7.68,0,0,1,.79,3.58V499h-4.16v-9.45a3.84,3.84,0,0,0-.91-2.78,3.47,3.47,0,0,0-2.6-.93,3.63,3.63,0,0,0-3,1.28,5.35,5.35,0,0,0-1.06,3.55V499Z" transform="translate(-716.05 -475.85)"/><path class="cls-3" d="M872.49,496.61c1.11,2.25,3.15,3.56,5.09,3.24,1.3-.22,2.82-1.17,4-3.62a1.94,1.94,0,0,0-3.48-1.71,5.2,5.2,0,0,1-.72,1.15c-.16.18-.29.33-.46.36s-.3-.16-.44-.32a3.16,3.16,0,0,1-.65-1.07,19.66,19.66,0,0,1-.63-2,48.61,48.61,0,0,0,3.51-8.25,1.94,1.94,0,0,0-3.71-1.12,42.4,42.4,0,0,1-1.49,4,13.92,13.92,0,0,0-.63-1.35c-1.43-2.66-3.54-4.37-6.42-4-4.63.54-7,4.89-6.85,9.25s2.76,8.54,7.08,8.54c2.08,0,4.08-1.19,5.78-3.09Zm-1.4-4.58a21.35,21.35,0,0,0-1.6-4.26c-.62-1.14-1.32-2.16-2.56-2-2.54.3-3.49,2.92-3.43,5.32a6.52,6.52,0,0,0,1,3.52,2.62,2.62,0,0,0,2.19,1.24,3.3,3.3,0,0,0,2.08-1,12.89,12.89,0,0,0,2.3-2.82Z" transform="translate(-716.05 -475.85)"/><polygon class="cls-2" points="80.32 55.47 80.32 33.05 88.16 33.05 92.04 52.59 92.61 52.59 96.49 33.05 104.33 33.05 104.33 55.47 100.23 55.47 100.23 36.16 99.66 36.16 95.81 55.47 88.83 55.47 84.99 36.16 84.42 36.16 84.42 55.47 80.32 55.47 80.32 55.47"/><path class="cls-2" d="M830.15,531.76a8.48,8.48,0,0,1-4.18-1,7.1,7.1,0,0,1-2.82-2.85,8.92,8.92,0,0,1-1-4.34v-.38a9,9,0,0,1,1-4.34,7,7,0,0,1,2.78-2.85,8.41,8.41,0,0,1,4.17-1,7.76,7.76,0,0,1,4.06,1,7.18,7.18,0,0,1,2.69,2.88,9.15,9.15,0,0,1,1,4.28v1.38H826.24a3.61,3.61,0,0,0,1.22,2.65,4.07,4.07,0,0,0,2.82,1,3.62,3.62,0,0,0,2.5-.74,5.21,5.21,0,0,0,1.21-1.63l3.3,1.73a10.25,10.25,0,0,1-1.3,1.81,6.94,6.94,0,0,1-2.25,1.66,8.17,8.17,0,0,1-3.59.69Zm-3.87-10.21h7.42a3.13,3.13,0,0,0-1.1-2.21,4.35,4.35,0,0,0-5.14,0,3.57,3.57,0,0,0-1.19,2.21Z" transform="translate(-716.05 -475.85)"/><path class="cls-2" d="M847,531.76a7,7,0,0,1-3.54-.94,6.92,6.92,0,0,1-2.64-2.77,9.16,9.16,0,0,1-1-4.42v-.52a9.12,9.12,0,0,1,1-4.41A6.9,6.9,0,0,1,847,515a7.35,7.35,0,0,1,2.42.34,4.81,4.81,0,0,1,1.58.85,3.73,3.73,0,0,1,.93,1.09h.58V508.9h4v22.41h-4v-1.92H852a5.15,5.15,0,0,1-1.68,1.63,6.1,6.1,0,0,1-3.31.74Zm1.22-3.52a4.29,4.29,0,0,0,3.1-1.2,4.62,4.62,0,0,0,1.25-3.51v-.32a4.7,4.7,0,0,0-1.23-3.51,4.64,4.64,0,0,0-6.23,0,4.67,4.67,0,0,0-1.25,3.51v.32a4.66,4.66,0,0,0,1.25,3.51,4.31,4.31,0,0,0,3.11,1.2Z" transform="translate(-716.05 -475.85)"/><path class="cls-2" d="M859.29,531.31V515.43h4v15.88Zm2-17.74a2.62,2.62,0,0,1-1.85-.7,2.68,2.68,0,0,1,0-3.72,2.62,2.62,0,0,1,1.85-.7,2.57,2.57,0,0,1,1.85.7,2.71,2.71,0,0,1,0,3.72,2.57,2.57,0,0,1-1.85.7Z" transform="translate(-716.05 -475.85)"/><path class="cls-2" d="M871.17,531.76a7.61,7.61,0,0,1-3-.59,5,5,0,0,1-2.12-1.73,4.71,4.71,0,0,1-.79-2.77,4.57,4.57,0,0,1,.79-2.74,4.68,4.68,0,0,1,2.17-1.66,8.37,8.37,0,0,1,3.19-.56h4.35v-.9A2.51,2.51,0,0,0,875,519a3,3,0,0,0-2.24-.72,3.18,3.18,0,0,0-2.24.69,3.27,3.27,0,0,0-1,1.77l-3.72-1.25a6.56,6.56,0,0,1,1.23-2.22,6.12,6.12,0,0,1,2.28-1.63,8.57,8.57,0,0,1,3.47-.63,7.37,7.37,0,0,1,5,1.57,5.69,5.69,0,0,1,1.82,4.55V527q0,1,.9,1h1.28v3.33h-2.69a3.23,3.23,0,0,1-2-.57,1.84,1.84,0,0,1-.76-1.54v0h-.61a4.54,4.54,0,0,1-.58,1,3.83,3.83,0,0,1-1.41,1.1,5.92,5.92,0,0,1-2.62.48Zm.7-3.27a4,4,0,0,0,2.77-.94,3.17,3.17,0,0,0,1.07-2.51v-.32h-4.06a2.85,2.85,0,0,0-1.76.48,1.56,1.56,0,0,0-.64,1.34,1.72,1.72,0,0,0,.67,1.41,3.06,3.06,0,0,0,2,.54Z" transform="translate(-716.05 -475.85)"/></svg>